<svg xmlns="http://www.w3.org/2000/svg" xmlns:xlink="http://www.w3.org/1999/xlink" version="1.1" x="0px" y="0px" viewBox="0 0 504.001 630.00125" style="enable-background:new 0 0 504.001 504.001;" xml:space="preserve"><g><path d="M503.448,410.712c-1.118-1.903-3.569-2.54-5.476-1.421l-13.222,7.773c-8.745-1.399-56.78-9.496-80.859-22.145   c-14.477-7.604-27.837-25.307-40.757-42.426c-10.446-13.843-21.249-28.156-32.734-37.119c-17.301-13.501-55.902-37.31-77.373-50.3   c-7.349-4.447-9.813-14.103-5.492-21.523c4.333-7.442,13.66-10.058,21.233-5.955l135.813,73.608   c1.946,1.054,4.371,0.331,5.423-1.61c1.053-1.942,0.332-4.37-1.61-5.423l-19.867-10.767c-0.201-2.201-0.672-4.371-1.423-6.479   l-22.422-62.867c10.652-0.603,36.556-0.634,60.056,10.543c9.079,4.317,50.247,28.244,72.346,51.796   c0.787,0.839,1.852,1.263,2.918,1.263c0.98,0,1.964-0.358,2.736-1.083c1.61-1.512,1.691-4.043,0.18-5.654   c-23.197-24.721-64.987-48.906-74.744-53.546c-27.277-12.973-56.638-11.949-66.29-11.165l-21.184-59.397   c-2.366-6.637-7.176-11.954-13.543-14.974c-6.367-3.019-13.527-3.378-20.164-1.011l-122.379,43.647V33.65   c0-18.555-15.096-33.65-33.651-33.65H33.65C15.096,0,0,15.096,0,33.65v210.078c0,18.555,15.096,33.65,33.65,33.65h38.877   l38.519,108.003c3.846,10.781,14.03,17.519,24.872,17.519c2.935,0,5.918-0.493,8.836-1.534l136.767-48.778   c6.263,5.562,27.165,22.861,44.852,22.861c0.034,0,0.067-0.003,0.101-0.003c2.959,5.866,11.146,19.624,23.55,21.541   c3.075,6.328,12.892,23.791,27.568,23.791c0.11,0,0.223-0.001,0.333-0.003c13.31-0.239,24.821-10.67,29.373-15.406   c20.833,8.942,50.786,15.114,66.742,17.991l-47.1,27.69c-0.914,0.538-1.578,1.417-1.845,2.443   c-0.267,1.027-0.114,2.117,0.424,3.032l26.75,45.501c0.745,1.268,2.08,1.974,3.452,1.974c0.688,0,1.387-0.179,2.023-0.553   c1.904-1.119,2.54-3.571,1.421-5.476l-7.743-13.17l50.553-28.739c1.921-1.092,2.593-3.534,1.501-5.454   c-1.092-1.921-3.532-2.591-5.454-1.501l-50.655,28.797l-12.925-21.985l67.584-39.732   C503.932,415.068,504.567,412.616,503.448,410.712z M33.65,269.379c-14.144,0-25.65-11.507-25.65-25.65V33.65   C8,19.507,19.507,8,33.65,8h117.311c14.145,0,25.651,11.507,25.651,25.65v153.679l-35.163,12.541v-50.728c0-2.209-1.791-4-4-4   H47.163c-2.209,0-4,1.791-4,4v82.537c0,2.209,1.791,4,4,4h18.235c-2.774,6.222-3.052,13.152-0.755,19.59l5.032,14.109H33.65z    M51.163,227.68v-74.537h82.286v49.581l-52.822,18.839c-3.715,1.325-7.016,3.416-9.733,6.117H51.163z M142.067,393.831   c-9.537,3.404-20.081-1.592-23.485-11.137L72.178,252.582c-1.649-4.624-1.399-9.613,0.704-14.049s5.809-7.787,10.433-9.436   l226.364-80.733c4.624-1.649,9.614-1.4,14.049,0.704c4.436,2.104,7.787,5.809,9.436,10.433l45.935,128.792l-75.222-40.769   l24.467-8.726c2.081-0.742,3.166-3.03,2.424-5.111s-3.03-3.164-5.111-2.424l-31.231,11.139l-21.843-11.839   c-11.4-6.182-25.438-2.239-31.96,8.963c-4.106,7.052-4.137,15.444-0.82,22.357l-32.074,11.439c-2.081,0.742-3.166,3.03-2.424,5.111   c0.584,1.637,2.124,2.657,3.768,2.657c0.446,0,0.899-0.075,1.344-0.233l34.244-12.213c1.26,1.225,2.668,2.33,4.229,3.274   c21.318,12.899,59.617,36.517,76.592,49.763c1.853,1.446,3.685,3.05,5.505,4.773L142.067,393.831z M300.705,357.286   c-4.128-2.741-7.763-5.562-10.482-7.801l46.901-16.727c4.399,4.852,8.765,10.32,13.192,16.082   c-1.966,4.731-8.269,16.818-21.861,18.486C321.471,368.189,311.883,364.709,300.705,357.286z M352.757,389.222   c-7.74-0.116-14.36-8.787-17.932-15.092c11.111-3.344,17.588-12.004,20.918-18.153c0.336,0.445,0.671,0.888,1.008,1.335   c5.214,6.909,10.498,13.907,15.949,20.381c-3.268,3.959-10.694,11.531-19.701,11.531   C352.918,389.224,352.837,389.224,352.757,389.222z M377.781,412.777c-0.061,0.001-0.12,0.001-0.182,0.001   c-7.957,0-14.968-9.368-18.812-16.248c8.771-2.093,15.545-8.479,19.249-12.75c6.837,7.45,13.974,13.804,21.595,17.926   C395.072,406.033,386.693,412.617,377.781,412.777z"/><path d="M190.428,287.034c-6.471-5.01-13.244-7.25-17.909-8.253c2.662-7.063,2.857-15.497-0.058-23.673   c-5.909-16.567-22.372-25.89-36.692-20.783c-14.322,5.109-21.167,22.744-15.258,39.312c2.917,8.18,8.413,14.576,14.946,18.359   c-2.979,3.727-6.812,9.744-8.655,17.733c-3.113,13.494,2.539,34.555,2.781,35.444c0.292,1.075,1.02,1.98,2.008,2.496   c0.577,0.302,1.213,0.454,1.852,0.454c0.453,0,0.908-0.077,1.344-0.232l73.609-26.253c1.05-0.374,1.896-1.17,2.334-2.194   s0.43-2.185-0.024-3.202C210.328,315.397,201.378,295.514,190.428,287.034z M128.045,270.948   c-4.428-12.413,0.242-25.462,10.41-29.089c1.792-0.639,3.636-0.943,5.483-0.943c8.638,0,17.339,6.653,20.986,16.879   c4.426,12.413-0.244,25.463-10.411,29.089C144.352,290.508,132.473,283.361,128.045,270.948z M136.3,338.856   c-1.413-6.493-3.614-19.05-1.704-27.33c1.886-8.173,6.405-13.899,8.714-16.402c1.904,0.441,3.838,0.693,5.78,0.693   c2.723,0,5.455-0.451,8.112-1.398c4.556-1.625,8.352-4.521,11.225-8.244c3.385,0.484,10.493,2.067,17.103,7.185   c6.72,5.203,12.961,16.318,15.977,22.24L136.3,338.856z"/><path d="M191.231,231.072c0.446,0,0.899-0.075,1.344-0.233l117.929-42.06c2.081-0.742,3.166-3.03,2.424-5.111   s-3.03-3.165-5.111-2.424l-117.929,42.06c-2.081,0.742-3.166,3.03-2.424,5.111C188.048,230.052,189.588,231.072,191.231,231.072z"/><path d="M47.163,103.712h90.286c2.209,0,4-1.791,4-4v-40.41c0-2.209-1.791-4-4-4H47.163c-2.209,0-4,1.791-4,4v40.41   C43.163,101.921,44.954,103.712,47.163,103.712z M51.163,63.302h82.286v32.41H51.163V63.302z"/><path d="M47.872,347.221c-0.438-2.165-2.553-3.564-4.713-3.128l-34.82,7.038c-2.166,0.438-3.566,2.548-3.129,4.713   c0.384,1.898,2.053,3.209,3.917,3.209c0.263,0,0.529-0.026,0.796-0.08l34.82-7.038C46.909,351.497,48.31,349.387,47.872,347.221z"/><path d="M55.838,385.877l-24.236,21.912c-1.639,1.481-1.766,4.011-0.284,5.649c0.789,0.873,1.877,1.317,2.968,1.317   c0.957,0,1.916-0.341,2.682-1.033l24.236-21.912c1.639-1.481,1.766-4.011,0.284-5.649   C60.006,384.521,57.476,384.395,55.838,385.877z"/><path d="M93.334,401.768c-2.134-0.57-4.326,0.701-4.894,2.837l-8.3,31.209c-0.568,2.135,0.702,4.326,2.837,4.894   c0.345,0.092,0.69,0.136,1.031,0.136c1.769,0,3.387-1.183,3.862-2.973l8.3-31.209C96.739,404.526,95.469,402.335,93.334,401.768z"/></g></svg>